<mxfile host="app.diagrams.net" modified="2024-01-28T05:50:50.013Z" agent="Mozilla/5.0 (Windows NT 10.0; Win64; x64) AppleWebKit/537.36 (KHTML, like Gecko) Chrome/121.0.0.0 Safari/537.36 Edg/121.0.0.0" etag="Ozr0FXOqbXKGgPeeZzwC" version="23.0.2" type="device">
  <diagram name="PÃ¡gina-1" id="89YWA9n7agCLwDgMNQ_F">
    <mxGraphModel dx="377" dy="184" grid="1" gridSize="10" guides="1" tooltips="1" connect="1" arrows="1" fold="1" page="1" pageScale="1" pageWidth="827" pageHeight="1169" math="0" shadow="0">
      <root>
        <mxCell id="0" />
        <mxCell id="1" parent="0" />
        <mxCell id="tLMv1XMo47Jo0GsJXsUl-3" value="" style="edgeStyle=orthogonalEdgeStyle;rounded=0;orthogonalLoop=1;jettySize=auto;html=1;" edge="1" parent="1" source="tLMv1XMo47Jo0GsJXsUl-1" target="tLMv1XMo47Jo0GsJXsUl-2">
          <mxGeometry relative="1" as="geometry" />
        </mxCell>
        <mxCell id="tLMv1XMo47Jo0GsJXsUl-1" value="&lt;font style=&quot;font-size: 36px;&quot;&gt;0&lt;/font&gt;" style="ellipse;whiteSpace=wrap;html=1;aspect=fixed;" vertex="1" parent="1">
          <mxGeometry x="70" y="200" width="80" height="80" as="geometry" />
        </mxCell>
        <mxCell id="tLMv1XMo47Jo0GsJXsUl-7" value="" style="edgeStyle=orthogonalEdgeStyle;rounded=0;orthogonalLoop=1;jettySize=auto;html=1;" edge="1" parent="1" source="tLMv1XMo47Jo0GsJXsUl-2" target="tLMv1XMo47Jo0GsJXsUl-6">
          <mxGeometry relative="1" as="geometry" />
        </mxCell>
        <mxCell id="tLMv1XMo47Jo0GsJXsUl-2" value="&lt;font style=&quot;font-size: 36px;&quot;&gt;1&lt;/font&gt;" style="ellipse;whiteSpace=wrap;html=1;aspect=fixed;" vertex="1" parent="1">
          <mxGeometry x="230" y="200" width="80" height="80" as="geometry" />
        </mxCell>
        <mxCell id="tLMv1XMo47Jo0GsJXsUl-5" value="&lt;font style=&quot;font-size: 14px;&quot;&gt;A&lt;br&gt;(0-2)&lt;/font&gt;" style="text;html=1;strokeColor=none;fillColor=none;align=center;verticalAlign=middle;whiteSpace=wrap;rounded=0;" vertex="1" parent="1">
          <mxGeometry x="160" y="225" width="60" height="30" as="geometry" />
        </mxCell>
        <mxCell id="tLMv1XMo47Jo0GsJXsUl-12" value="" style="edgeStyle=orthogonalEdgeStyle;rounded=0;orthogonalLoop=1;jettySize=auto;html=1;" edge="1" parent="1" source="tLMv1XMo47Jo0GsJXsUl-6" target="tLMv1XMo47Jo0GsJXsUl-11">
          <mxGeometry relative="1" as="geometry" />
        </mxCell>
        <mxCell id="tLMv1XMo47Jo0GsJXsUl-6" value="&lt;font style=&quot;font-size: 36px;&quot;&gt;2&lt;/font&gt;" style="ellipse;whiteSpace=wrap;html=1;aspect=fixed;" vertex="1" parent="1">
          <mxGeometry x="230" y="350" width="80" height="80" as="geometry" />
        </mxCell>
        <mxCell id="tLMv1XMo47Jo0GsJXsUl-8" value="&lt;font style=&quot;font-size: 14px;&quot;&gt;B&lt;br&gt;(2-5)&lt;/font&gt;" style="text;html=1;strokeColor=none;fillColor=none;align=center;verticalAlign=middle;whiteSpace=wrap;rounded=0;" vertex="1" parent="1">
          <mxGeometry x="210" y="300" width="60" height="30" as="geometry" />
        </mxCell>
        <mxCell id="tLMv1XMo47Jo0GsJXsUl-15" value="" style="edgeStyle=orthogonalEdgeStyle;rounded=0;orthogonalLoop=1;jettySize=auto;html=1;" edge="1" parent="1" source="tLMv1XMo47Jo0GsJXsUl-11" target="tLMv1XMo47Jo0GsJXsUl-14">
          <mxGeometry relative="1" as="geometry" />
        </mxCell>
        <mxCell id="tLMv1XMo47Jo0GsJXsUl-11" value="&lt;font style=&quot;font-size: 36px;&quot;&gt;3&lt;/font&gt;" style="ellipse;whiteSpace=wrap;html=1;aspect=fixed;" vertex="1" parent="1">
          <mxGeometry x="230" y="490" width="80" height="80" as="geometry" />
        </mxCell>
        <mxCell id="tLMv1XMo47Jo0GsJXsUl-13" value="&lt;font style=&quot;font-size: 14px;&quot;&gt;C&lt;br&gt;(5-5.4)&lt;/font&gt;" style="text;html=1;strokeColor=none;fillColor=none;align=center;verticalAlign=middle;whiteSpace=wrap;rounded=0;" vertex="1" parent="1">
          <mxGeometry x="210" y="440" width="60" height="30" as="geometry" />
        </mxCell>
        <mxCell id="tLMv1XMo47Jo0GsJXsUl-26" value="" style="edgeStyle=orthogonalEdgeStyle;rounded=0;orthogonalLoop=1;jettySize=auto;html=1;" edge="1" parent="1" source="tLMv1XMo47Jo0GsJXsUl-14" target="tLMv1XMo47Jo0GsJXsUl-25">
          <mxGeometry relative="1" as="geometry" />
        </mxCell>
        <mxCell id="tLMv1XMo47Jo0GsJXsUl-14" value="&lt;font style=&quot;font-size: 36px;&quot;&gt;4&lt;/font&gt;" style="ellipse;whiteSpace=wrap;html=1;aspect=fixed;" vertex="1" parent="1">
          <mxGeometry x="230" y="650" width="80" height="80" as="geometry" />
        </mxCell>
        <mxCell id="tLMv1XMo47Jo0GsJXsUl-16" value="&lt;font style=&quot;font-size: 14px;&quot;&gt;D&lt;br&gt;(5.4-5.8)&lt;/font&gt;" style="text;html=1;strokeColor=none;fillColor=none;align=center;verticalAlign=middle;whiteSpace=wrap;rounded=0;" vertex="1" parent="1">
          <mxGeometry x="210" y="590" width="60" height="30" as="geometry" />
        </mxCell>
        <mxCell id="tLMv1XMo47Jo0GsJXsUl-29" value="" style="edgeStyle=orthogonalEdgeStyle;rounded=0;orthogonalLoop=1;jettySize=auto;html=1;" edge="1" parent="1" source="tLMv1XMo47Jo0GsJXsUl-25" target="tLMv1XMo47Jo0GsJXsUl-28">
          <mxGeometry relative="1" as="geometry" />
        </mxCell>
        <mxCell id="tLMv1XMo47Jo0GsJXsUl-25" value="&lt;font style=&quot;font-size: 36px;&quot;&gt;5&lt;/font&gt;" style="ellipse;whiteSpace=wrap;html=1;aspect=fixed;" vertex="1" parent="1">
          <mxGeometry x="390" y="650" width="80" height="80" as="geometry" />
        </mxCell>
        <mxCell id="tLMv1XMo47Jo0GsJXsUl-27" value="&lt;font style=&quot;font-size: 14px;&quot;&gt;E&lt;br&gt;(5.8-6.4)&lt;/font&gt;" style="text;html=1;strokeColor=none;fillColor=none;align=center;verticalAlign=middle;whiteSpace=wrap;rounded=0;" vertex="1" parent="1">
          <mxGeometry x="320" y="675" width="60" height="30" as="geometry" />
        </mxCell>
        <mxCell id="tLMv1XMo47Jo0GsJXsUl-32" value="" style="edgeStyle=orthogonalEdgeStyle;rounded=0;orthogonalLoop=1;jettySize=auto;html=1;" edge="1" parent="1" source="tLMv1XMo47Jo0GsJXsUl-28" target="tLMv1XMo47Jo0GsJXsUl-31">
          <mxGeometry relative="1" as="geometry" />
        </mxCell>
        <mxCell id="tLMv1XMo47Jo0GsJXsUl-28" value="&lt;font style=&quot;font-size: 36px;&quot;&gt;6&lt;/font&gt;" style="ellipse;whiteSpace=wrap;html=1;aspect=fixed;" vertex="1" parent="1">
          <mxGeometry x="390" y="490" width="80" height="80" as="geometry" />
        </mxCell>
        <mxCell id="tLMv1XMo47Jo0GsJXsUl-30" value="&lt;font style=&quot;font-size: 14px;&quot;&gt;F&lt;br&gt;(6.4-10.4)&lt;/font&gt;" style="text;html=1;strokeColor=none;fillColor=none;align=center;verticalAlign=middle;whiteSpace=wrap;rounded=0;" vertex="1" parent="1">
          <mxGeometry x="360" y="600" width="70" height="30" as="geometry" />
        </mxCell>
        <mxCell id="tLMv1XMo47Jo0GsJXsUl-35" value="" style="edgeStyle=orthogonalEdgeStyle;rounded=0;orthogonalLoop=1;jettySize=auto;html=1;" edge="1" parent="1" source="tLMv1XMo47Jo0GsJXsUl-31" target="tLMv1XMo47Jo0GsJXsUl-34">
          <mxGeometry relative="1" as="geometry" />
        </mxCell>
        <mxCell id="tLMv1XMo47Jo0GsJXsUl-31" value="&lt;font style=&quot;font-size: 36px;&quot;&gt;7&lt;/font&gt;" style="ellipse;whiteSpace=wrap;html=1;aspect=fixed;" vertex="1" parent="1">
          <mxGeometry x="390" y="330" width="80" height="80" as="geometry" />
        </mxCell>
        <mxCell id="tLMv1XMo47Jo0GsJXsUl-33" value="&lt;font style=&quot;font-size: 14px;&quot;&gt;G&lt;br&gt;(10.4-12)&lt;/font&gt;" style="text;html=1;strokeColor=none;fillColor=none;align=center;verticalAlign=middle;whiteSpace=wrap;rounded=0;" vertex="1" parent="1">
          <mxGeometry x="350" y="440" width="70" height="30" as="geometry" />
        </mxCell>
        <mxCell id="tLMv1XMo47Jo0GsJXsUl-38" value="" style="edgeStyle=orthogonalEdgeStyle;rounded=0;orthogonalLoop=1;jettySize=auto;html=1;" edge="1" parent="1" source="tLMv1XMo47Jo0GsJXsUl-34" target="tLMv1XMo47Jo0GsJXsUl-37">
          <mxGeometry relative="1" as="geometry" />
        </mxCell>
        <mxCell id="tLMv1XMo47Jo0GsJXsUl-34" value="&lt;span style=&quot;font-size: 36px;&quot;&gt;8&lt;br&gt;&lt;/span&gt;" style="ellipse;whiteSpace=wrap;html=1;aspect=fixed;" vertex="1" parent="1">
          <mxGeometry x="390" y="170" width="80" height="80" as="geometry" />
        </mxCell>
        <mxCell id="tLMv1XMo47Jo0GsJXsUl-36" value="&lt;font style=&quot;font-size: 14px;&quot;&gt;H&lt;br&gt;(12-13.4)&lt;/font&gt;" style="text;html=1;strokeColor=none;fillColor=none;align=center;verticalAlign=middle;whiteSpace=wrap;rounded=0;" vertex="1" parent="1">
          <mxGeometry x="360" y="280" width="70" height="30" as="geometry" />
        </mxCell>
        <mxCell id="tLMv1XMo47Jo0GsJXsUl-37" value="&lt;span style=&quot;font-size: 36px;&quot;&gt;9&lt;br&gt;&lt;/span&gt;" style="ellipse;whiteSpace=wrap;html=1;aspect=fixed;" vertex="1" parent="1">
          <mxGeometry x="570" y="170" width="80" height="80" as="geometry" />
        </mxCell>
        <mxCell id="tLMv1XMo47Jo0GsJXsUl-39" value="&lt;font style=&quot;font-size: 14px;&quot;&gt;G&lt;br&gt;(13.4-14.4)&lt;/font&gt;" style="text;html=1;strokeColor=none;fillColor=none;align=center;verticalAlign=middle;whiteSpace=wrap;rounded=0;" vertex="1" parent="1">
          <mxGeometry x="470" y="195" width="90" height="30" as="geometry" />
        </mxCell>
      </root>
    </mxGraphModel>
  </diagram>
</mxfile>
